Coordinates
version=1
nRows=19
nColumns=21
inDegrees=yes

Units are S.I. units (second, meters, Newtons, ...)
Angles are in degrees.

endheader
time	Thorax_pitch	Thorax_roll	Thorax_yaw	Thorax_Tx	Thorax_Ty	Thorax_Tz	L_shoulder_flex-ext	L_shoulder_adb-add	L_shoulder_LAR	L_elbow_flex-ext	L_forearm_pron-sup	L_wrist_flex-ext	L_MCP_flex-ext	R_shoulder_flex-ext	R_shoulder_adb-add	R_shoulder_LAR	R_elbow_flex-ext	R_forearm_pron-sup	R_wrist_flex-ext	R_MCP_flex-ext
      0.00400000	      0.00000000	      0.00000000	      9.13147628	      0.04638082	      0.31856180	      0.07959941	      0.00000000	      0.00000000	      0.00000000	    -66.28902018	     50.11432622	      0.00000000	      0.00000000	    -23.70228081	     10.93148140	    -13.70080191	    -48.51178647	    131.32945742	    -22.25017497	      9.95175189
      0.00410000	      0.00000000	      0.00000000	      8.99019901	      0.04654486	      0.31852431	      0.07958557	      0.00000000	      0.00000000	      0.00000000	    -66.31787448	     50.11138813	      0.00000000	      0.00000000	    -23.72980879	     10.82988007	    -14.02007343	    -48.53703524	    131.22615717	    -22.36266333	     10.09545694
      0.00420000	      0.00000000	      0.00000000	      9.03579385	      0.04659979	      0.31856206	      0.07956892	      0.00000000	      0.00000000	      0.00000000	    -66.34931513	     50.10772560	      0.00000000	      0.00000000	    -23.70273004	     10.74694404	    -13.99992787	    -48.42452096	    131.17668501	    -22.44298886	     10.23609577
      0.00430000	      0.00000000	      0.00000000	      9.04822941	      0.04666216	      0.31857727	      0.07953965	      0.00000000	      0.00000000	      0.00000000	    -66.38843916	     50.10296508	      0.00000000	      0.00000000	    -23.75689601	     10.71047312	    -13.90774644	    -48.35315122	    131.15854064	    -22.47256944	     10.28370141
      0.00440000	      0.00000000	      0.00000000	      9.07203028	      0.04673700	      0.31856629	      0.07950717	      0.00000000	      0.00000000	      0.00000000	    -66.41960038	     50.09972388	      0.00000000	      0.00000000	    -23.74055894	     10.70370519	    -13.97130631	    -48.45369796	    130.98528137	    -22.42211676	     10.27002933
      0.00450000	      0.00000000	      0.00000000	      9.07925516	      0.04681540	      0.31857885	      0.07947048	      0.00000000	      0.00000000	      0.00000000	    -66.45689566	     50.09519907	      0.00000000	      0.00000000	    -23.79034462	     10.65317948	    -13.88275585	    -48.36179896	    130.96648099	    -22.52049221	     10.30004137
      0.00460000	      0.00000000	      0.00000000	      9.07955557	      0.04689815	      0.31857177	      0.07944102	      0.00000000	      0.00000000	      0.00000000	    -66.48524467	     50.09208105	      0.00000000	      0.00000000	    -23.79751348	     10.65218369	    -13.91726928	    -48.46599186	    130.67372794	    -22.51487654	     10.28671087
      0.00470000	      0.00000000	      0.00000000	      9.10808869	      0.04696670	      0.31858712	      0.07940797	      0.00000000	      0.00000000	      0.00000000	    -66.51936249	     50.08801987	      0.00000000	      0.00000000	    -23.82145825	     10.59333334	    -13.83813202	    -48.37081725	    130.62667552	    -22.62952012	     10.30189152
      0.00480000	      0.00000000	      0.00000000	      9.10427890	      0.04705017	      0.31857986	      0.07937668	      0.00000000	      0.00000000	      0.00000000	    -66.54591825	     50.08511779	      0.00000000	      0.00000000	    -23.83493210	     10.59845556	    -13.86388949	    -48.48052081	    130.30996415	    -22.63075470	     10.28310670
      0.00490000	      0.00000000	      0.00000000	      9.14358351	      0.04710293	      0.31859192	      0.07934932	      0.00000000	      0.00000000	      0.00000000	    -66.57227217	     50.08233602	      0.00000000	      0.00000000	    -23.82364973	     10.54800392	    -13.86665946	    -48.44100106	    130.25733728	    -22.68954978	     10.29482694
      0.00500000	      0.00000000	      0.00000000	      9.14188486	      0.04719431	      0.31859613	      0.07931778	      0.00000000	      0.00000000	      0.00000000	    -66.59590524	     50.07992691	      0.00000000	      0.00000000	    -23.84660247	     10.51802587	    -13.85921455	    -48.43261801	    130.26997754	    -22.73192554	     10.27802917
      0.00510000	      0.00000000	      0.00000000	      9.13922991	      0.04728486	      0.31859186	      0.07928365	      0.00000000	      0.00000000	      0.00000000	    -66.62228933	     50.07700777	      0.00000000	      0.00000000	    -23.88035597	     10.47905539	    -13.83327849	    -48.43702270	    130.05081715	    -22.80869276	     10.27469059
      0.00520000	      0.00000000	      0.00000000	      9.15716801	      0.04735387	      0.31860047	      0.07924873	      0.00000000	      0.00000000	      0.00000000	    -66.64662692	     50.07427475	      0.00000000	      0.00000000	    -23.89470890	     10.48382319	    -13.78988592	    -48.49769222	    129.69745873	    -22.84859057	     10.26299038
      0.00530000	      0.00000000	      0.00000000	      9.19479720	      0.04741352	      0.31860491	      0.07922299	      0.00000000	      0.00000000	      0.00000000	    -66.66863368	     50.07208473	      0.00000000	      0.00000000	    -23.88637984	     10.44404797	    -13.79684958	    -48.50186519	    129.60384940	    -22.88240010	     10.25196605
      0.00540000	      0.00000000	      0.00000000	      9.20255797	      0.04750705	      0.31859828	      0.07919005	      0.00000000	      0.00000000	      0.00000000	    -66.68922282	     50.07009608	      0.00000000	      0.00000000	    -23.88828989	     10.42597781	    -13.81212452	    -48.55612247	    129.44186227	    -22.89734019	     10.24117460
      0.00550000	      0.00000000	      0.00000000	      9.23046817	      0.04754447	      0.31860888	      0.07916451	      0.00000000	      0.00000000	      0.00000000	    -66.71822385	     50.06647817	      0.00000000	      0.00000000	    -23.98832671	     10.34585830	    -13.57418934	    -48.34478257	    129.42136973	    -23.14162950	     10.21714673
      0.00560000	      0.00000000	      0.00000000	      9.21375583	      0.04765561	      0.31860253	      0.07911682	      0.00000000	      0.00000000	      0.00000000	    -66.73746667	     50.06451116	      0.00000000	      0.00000000	    -23.99652480	     10.38457016	    -13.62571384	    -48.52838565	    129.00475860	    -23.10840058	     10.17660970
      0.00570000	      0.00000000	      0.00000000	      9.25629379	      0.04770875	      0.31862940	      0.07910044	      0.00000000	      0.00000000	      0.00000000	    -66.75838342	     50.06224429	      0.00000000	      0.00000000	    -23.98323794	     10.31430412	    -13.58956327	    -48.44835132	    128.88728086	    -23.22436269	     10.18491426
      0.00580000	      0.00000000	      0.00000000	      9.23820106	      0.04781144	      0.31861136	      0.07905802	      0.00000000	      0.00000000	      0.00000000	    -66.77515118	     50.06072383	      0.00000000	      0.00000000	    -23.99208397	     10.32642737	    -13.66544156	    -48.57908156	    128.66033356	    -23.21033870	     10.16839207
